<?xml version="1.0" encoding="UTF-8"?>
<svg xmlns="http://www.w3.org/2000/svg" style="display: none;">
  <symbol id="ph-dt-address-book" viewBox="0 0 256 256"><path d="M208,32H64a8,8,0,0,0-8,8V216a8,8,0,0,0,8,8H208a8,8,0,0,0,8-8V40A8,8,0,0,0,208,32ZM136,144a32,32,0,1,1,32-32A32,32,0,0,1,136,144Z" opacity="0.2"/><path d="M83.19238,174.39453a8,8,0,0,0,11.20117-1.5918,52.0088,52.0088,0,0,1,83.21143-.00195,7.99961,7.99961,0,1,0,12.792-9.60937,67.80622,67.80622,0,0,0-27.42627-21.68067,40,40,0,1,0-53.94153-.00012,67.80989,67.80989,0,0,0-27.42858,21.68274A8.00034,8.00034,0,0,0,83.19238,174.39453ZM112,112a24,24,0,1,1,24,24A24.0275,24.0275,0,0,1,112,112Zm96-88H64A16.01833,16.01833,0,0,0,48,40V60H32a8,8,0,0,0,0,16H48v24H32a8,8,0,0,0,0,16H48v24H32a8,8,0,0,0,0,16H48v24H32a8,8,0,0,0,0,16H48v20a16.01833,16.01833,0,0,0,16,16H208a16.01833,16.01833,0,0,0,16-16V40A16.01833,16.01833,0,0,0,208,24Zm0,192-143.99951.00977L64,216V40H208Z"/></symbol>
  <symbol id="ph-dt-circle-half" viewBox="0 0 256 256"><g opacity="0.2"><path d="M128,32a96,96,0,0,1,0,192"/></g><path d="M128,24A104,104,0,1,0,232,128,104.11791,104.11791,0,0,0,128,24Zm-8,191.63257a87.99667,87.99667,0,0,1,0-175.26514Zm16,0V40.36743a87.99667,87.99667,0,0,1,0,175.26514Z"/></symbol>
  <symbol id="ph-dt-anchor" viewBox="0 0 256 256"><path d="M216,136a8.00039,8.00039,0,0,0-8,8,40.04584,40.04584,0,0,1-40,40,47.79539,47.79539,0,0,0-32,12.27148V120h32a8,8,0,0,0,0-16H136V78.8291a28,28,0,1,0-16,0V104H88a8,8,0,0,0,0,16h32v76.27148A47.79539,47.79539,0,0,0,88,184a40.04584,40.04584,0,0,1-40-40,8,8,0,0,0-16,0,56.0629,56.0629,0,0,0,56,56,32.03667,32.03667,0,0,1,32,32,8,8,0,0,0,16,0,32.03667,32.03667,0,0,1,32-32,56.0629,56.0629,0,0,0,56-56A8.00039,8.00039,0,0,0,216,136ZM116,52a12,12,0,1,1,12,12A12.01312,12.01312,0,0,1,116,52Z"/></symbol>
  <symbol id="ph-dt-caret-double-down" viewBox="0 0 256 256"><g opacity="0.2"><polygon points="208 48 128 128 48 48 208 48"/></g><g><path d="M213.65674,122.34326a8,8,0,0,0-11.31348,0L128,196.68652,53.65674,122.34326a7.99984,7.99984,0,1,0-11.31348,11.31348l80,80.00049a8.00063,8.00063,0,0,0,11.31348,0l80-80.00049A7.99915,7.99915,0,0,0,213.65674,122.34326Z"/><path d="M122.34326,133.65674a7.99945,7.99945,0,0,0,11.31348,0l80-80A7.99981,7.99981,0,0,0,208,40H48a7.99981,7.99981,0,0,0-5.65674,13.65674ZM188.686,56,128,116.686,67.314,56Z"/></g></symbol>
  <symbol id="ph-dt-caret-double-up" viewBox="0 0 256 256"><g opacity="0.2"><polygon points="48 208 128 128 208 208 48 208"/></g><g><path d="M133.65674,122.34277a8.00182,8.00182,0,0,0-11.31348,0l-80,80A8.0001,8.0001,0,0,0,48,216H208a8.0001,8.0001,0,0,0,5.65674-13.65723ZM67.314,200,128,139.31348,188.686,200Z"/><path d="M53.65674,133.65723,128,59.31348l74.34326,74.34375a8.00018,8.00018,0,0,0,11.31348-11.31446l-80-80a8.00182,8.00182,0,0,0-11.31348,0l-80,80a8.00018,8.00018,0,0,0,11.31348,11.31446Z"/></g></symbol>
  <symbol id="ph-dt-archive" viewBox="0 0 256 256"><g opacity="0.2"><path d="M216,96v96a8,8,0,0,1-8,8H48a8,8,0,0,1-8-8V96Z"/></g><path d="M224,48H32A16.01833,16.01833,0,0,0,16,64V88a16.01833,16.01833,0,0,0,16,16v88a16.01833,16.01833,0,0,0,16,16H208a16.01833,16.01833,0,0,0,16-16V104a16.01833,16.01833,0,0,0,16-16V64A16.01833,16.01833,0,0,0,224,48ZM208,192H48V104H208ZM224,88H32V64H224l.00977,24ZM96,136a8.00039,8.00039,0,0,1,8-8h48a8,8,0,0,1,0,16H104A8.00039,8.00039,0,0,1,96,136Z"/></symbol>
  <symbol id="ph-dt-list" viewBox="0 0 256 256"><path d="M224,128.00037a8.00039,8.00039,0,0,1-8,8H40a8,8,0,0,1,0-16H216A8.00039,8.00039,0,0,1,224,128.00037Zm-184-56H216a8,8,0,0,0,0-16H40a8,8,0,1,0,0,16Zm176,112H40a8,8,0,0,0,0,16H216a8,8,0,0,0,0-16Z"/></symbol>
  <symbol id="ph-dt-bell" viewBox="0 0 256 256"><g opacity="0.2"><path d="M56.20305,104A71.899,71.899,0,0,1,128.5484,32.002c39.58967.29432,71.25651,33.20133,71.25651,72.90185V112c0,35.81563,7.49325,56.59893,14.093,67.95814A7.999,7.999,0,0,1,207.01628,192H48.98365A7.99908,7.99908,0,0,1,42.103,179.95641c6.60328-11.35959,14.1-32.1426,14.1-67.95641Z"/></g><path d="M220.81445,175.9397c-5.93457-10.21582-13.00976-29.60157-13.00976-63.93946v-7.09668c0-44.28515-35.52735-80.57715-79.19629-80.90136-.2041-.001-.40625-.002-.61035-.002a79.89891,79.89891,0,0,0-79.79493,80v8c0,34.33594-7.0791,53.72071-13.0166,63.93555A15.99885,15.99885,0,0,0,48.9834,200.00024H88a40,40,0,0,0,80,0h39.0166a15.99808,15.99808,0,0,0,13.79785-24.06054ZM128,224.00024a24.0275,24.0275,0,0,1-24-24h48A24.0275,24.0275,0,0,1,128,224.00024ZM49.01855,183.97681c6.92774-11.916,15.18457-34.07618,15.18457-71.97657v-8a63.90008,63.90008,0,0,1,63.79883-64c.16211,0,.3252.001.48731.002,34.91211.25878,63.31543,29.374,63.31543,64.90136v7.09668c0,37.90039,8.25293,60.06055,15.21191,72Z"/></symbol>
  <symbol id="ph-dt-text-bolder" viewBox="0 0 256 256"><path d="M170.4834,115.70117A43.98012,43.98012,0,0,0,140.00049,40l-76.00586-.00488h-.00049a7.99955,7.99955,0,0,0-8,8v152a8,8,0,0,0,7.99951,8L152,208a48.00015,48.00015,0,0,0,18.4834-92.29883ZM71.99414,55.99561,140,56a28,28,0,0,1,0,56H71.99414ZM152.00049,192l-80.00635-.00439V128H152a32,32,0,0,1,.00049,64Z"/></symbol>
  <symbol id="ph-dt-bookmark-simple" viewBox="0 0 256 256"><g opacity="0.2"><path d="M191.9707,224l-64.0074-40L63.9707,224V48a8,8,0,0,1,8-8h112a8,8,0,0,1,8,8Z"/></g><path d="M183.9707,32h-112a16.01833,16.01833,0,0,0-16,16V224a8.00043,8.00043,0,0,0,12.24024,6.78418l59.75293-37.35059L187.731,230.78418A8,8,0,0,0,199.9707,224V48A16.01833,16.01833,0,0,0,183.9707,32Zm0,177.56738-51.76758-32.35156a8.00107,8.00107,0,0,0-8.48,0L71.9707,209.56543V48h112Z"/></symbol>
  <symbol id="ph-dt-briefcase" viewBox="0 0 256 256"><g opacity="0.2"><path d="M128,152a191.11689,191.11689,0,0,1-95.99219-25.68164V208a7.99993,7.99993,0,0,0,8,8h176a7.99992,7.99992,0,0,0,8-8V126.30908A191.1142,191.1142,0,0,1,128,152Z"/></g><path d="M216.00781,64H176V56a24.0275,24.0275,0,0,0-24-24H104A24.0275,24.0275,0,0,0,80,56v8H40.00781a16.01833,16.01833,0,0,0-16,16V208a16.01833,16.01833,0,0,0,16,16h176a16.01833,16.01833,0,0,0,16-16V80A16.01833,16.01833,0,0,0,216.00781,64ZM96,56a8.00917,8.00917,0,0,1,8-8h48a8.00917,8.00917,0,0,1,8,8v8H96ZM216.00781,80l.00318,41.606A184.00072,184.00072,0,0,1,128,144a184.00068,184.00068,0,0,1-87.99219-22.38428V80Zm0,128h-176V139.63721A200.194,200.194,0,0,0,128,160,200.1909,200.1909,0,0,0,216.01245,139.627l.00513,68.37256ZM108,120a8.00039,8.00039,0,0,1,8-8h24a8,8,0,0,1,0,16H116A8.00039,8.00039,0,0,1,108,120Z"/></symbol>
  <symbol id="ph-dt-calendar-blank" viewBox="0 0 256 256"><g opacity="0.2"><path d="M40,88H216V48a8,8,0,0,0-8-8H48a8,8,0,0,0-8,8Z"/></g><path d="M208,32H184V24a8,8,0,0,0-16,0v8H88V24a8,8,0,0,0-16,0v8H48A16.01833,16.01833,0,0,0,32,48V208a16.01833,16.01833,0,0,0,16,16H208a16.01833,16.01833,0,0,0,16-16V48A16.01833,16.01833,0,0,0,208,32ZM72,48v8a8,8,0,0,0,16,0V48h80v8a8,8,0,0,0,16,0V48h24l.00195,32H48V48ZM208,208H48V96H208.00293l.00684,112Z"/></symbol>
  <symbol id="ph-dt-caret-circle-down" viewBox="0 0 256 256"><g opacity="0.2"><circle cx="128" cy="128" r="96"/></g><g><path d="M128,24A104,104,0,1,0,232,128,104.11791,104.11791,0,0,0,128,24Zm0,192a88,88,0,1,1,88-88A88.09957,88.09957,0,0,1,128,216Z"/><path d="M169.35156,110.05371a7.99978,7.99978,0,0,0-11.29785.59473L128,144.041,97.94629,110.64844a7.99985,7.99985,0,0,0-11.89258,10.70312l36,40a7.99954,7.99954,0,0,0,11.89258,0l36-40A7.99973,7.99973,0,0,0,169.35156,110.05371Z"/></g></symbol>
  <symbol id="ph-dt-caret-circle-left" viewBox="0 0 256 256"><g opacity="0.2"><circle cx="128" cy="128" r="96"/></g><g><path d="M128,24A104,104,0,1,0,232,128,104.11791,104.11791,0,0,0,128,24Zm0,192a88,88,0,1,1,88-88A88.09957,88.09957,0,0,1,128,216Z"/><path d="M149.94629,86.64844a7.99931,7.99931,0,0,0-11.29785-.59473l-40,36a7.99954,7.99954,0,0,0,0,11.89258l40,36a7.99985,7.99985,0,1,0,10.70312-11.89258L115.959,128l33.39258-30.05371A7.99973,7.99973,0,0,0,149.94629,86.64844Z"/></g></symbol>
  <symbol id="ph-dt-caret-circle-right" viewBox="0 0 256 256"><g opacity="0.2"><circle cx="128" cy="128" r="96"/></g><g><path d="M128,24A104,104,0,1,0,232,128,104.11791,104.11791,0,0,0,128,24Zm0,192a88,88,0,1,1,88-88A88.09957,88.09957,0,0,1,128,216Z"/><path d="M121.35156,86.05371a7.99985,7.99985,0,1,0-10.70312,11.89258L144.041,128l-33.39258,30.05371a7.99985,7.99985,0,1,0,10.70312,11.89258l40-36a7.99954,7.99954,0,0,0,0-11.89258Z"/></g></symbol>
  <symbol id="ph-dt-caret-circle-up" viewBox="0 0 256 256"><g opacity="0.2"><circle cx="128" cy="128" r="96"/></g><g><path d="M128,24A104,104,0,1,0,232,128,104.11791,104.11791,0,0,0,128,24Zm0,192a88,88,0,1,1,88-88A88.09957,88.09957,0,0,1,128,216Z"/><path d="M133.94629,98.64844a7.99954,7.99954,0,0,0-11.89258,0l-36,40a7.99985,7.99985,0,1,0,11.89258,10.70312L128,115.959l30.05371,33.39258a7.99985,7.99985,0,0,0,11.89258-10.70312Z"/></g></symbol>
  <symbol id="ph-dt-medal" viewBox="0 0 256 256"><g opacity="0.2"><circle cx="127.99414" cy="96" r="48"/></g><g><path d="M215.99414,96A88,88,0,1,0,72,163.8374V240a7.99951,7.99951,0,0,0,11.57812,7.15527l44.415-22.21093,44.42969,22.21142A8,8,0,0,0,184,240V163.82764A87.86066,87.86066,0,0,0,215.99414,96Zm-160,0a72,72,0,1,1,72,72A72.08124,72.08124,0,0,1,55.99414,96ZM168,227.05664l-36.43066-18.2124a8.00053,8.00053,0,0,0-7.15528.00049L88,227.05469V174.375a87.90556,87.90556,0,0,0,80-.00586Z"/><path d="M127.99414,152a56,56,0,1,0-56-56A56.06322,56.06322,0,0,0,127.99414,152Zm0-96a40,40,0,1,1-40,40A40.04552,40.04552,0,0,1,127.99414,56Z"/></g></symbol>
  <symbol id="ph-dt-chart-pie" viewBox="0 0 256 256"><g opacity="0.2"><path d="M128,128,44.86156,176l-.01368.00827A96.02522,96.02522,0,0,1,128,32Z"/></g><path d="M218.27118,76.39893c-.06738-.13331-.12872-.26807-.20429-.39893-.10229-.17725-.21606-.34326-.32946-.50977A103.97488,103.97488,0,0,0,37.72882,179.60107c.06738.1333.12872.26807.20429.39893.07153.124.15856.23242.23565.35107A103.97541,103.97541,0,0,0,218.27118,76.39893Zm-18.40448.87158L136,114.14355V40.36768A88.02777,88.02777,0,0,1,199.8667,77.27051ZM120,40.36768v83.01367L48.1142,164.88428A87.97545,87.97545,0,0,1,120,40.36768ZM128,216a87.955,87.955,0,0,1-71.8667-37.27051L207.8858,91.11572A87.9799,87.9799,0,0,1,128,216Z"/></symbol>
  <symbol id="ph-dt-check-circle" viewBox="0 0 256 256"><g opacity="0.2"><circle cx="128" cy="128" r="96"/></g><g><path d="M166.47607,98.2135,113.3335,148.94055,89.523,126.213a7.99994,7.99994,0,1,0-11.04688,11.57422l29.334,28a7.99913,7.99913,0,0,0,11.04687-.00049l58.666-56A7.99959,7.99959,0,1,0,166.47607,98.2135Z"/><path d="M127.99951,24.00012a104,104,0,1,0,104,104A104.11791,104.11791,0,0,0,127.99951,24.00012Zm0,192a88,88,0,1,1,88-88A88.09957,88.09957,0,0,1,127.99951,216.00012Z"/></g></symbol>
  <symbol id="ph-dt-check-square" viewBox="0 0 256 256"><g opacity="0.2"><rect x="40" y="40" width="176" height="176" rx="8"/></g><g><path d="M166.47656,98.213,113.333,148.94055,89.52344,126.2135a7.99959,7.99959,0,1,0-11.04688,11.57324l29.333,28a7.99914,7.99914,0,0,0,11.04688.00049l58.667-56A7.99994,7.99994,0,1,0,166.47656,98.213Z"/><path d="M208,32.00012H48a16.01833,16.01833,0,0,0-16,16v160a16.01833,16.01833,0,0,0,16,16H208a16.01833,16.01833,0,0,0,16-16v-160A16.01833,16.01833,0,0,0,208,32.00012Zm0,176H48v-160H208l.00977,159.99951Z"/></g></symbol>
  <symbol id="ph-dt-circle" viewBox="0 0 256 256"><g opacity="0.2"><circle cx="128" cy="128" r="96"/></g><path d="M128,232A104,104,0,1,1,232,128,104.11782,104.11782,0,0,1,128,232Zm0-192a88,88,0,1,0,88,88A88.09961,88.09961,0,0,0,128,40Z"/></symbol>
  <symbol id="ph-dt-clock" viewBox="0 0 256 256"><g opacity="0.2"><circle cx="128" cy="128" r="96"/></g><g><path d="M128,24A104,104,0,1,0,232,128,104.11791,104.11791,0,0,0,128,24Zm0,192a88,88,0,1,1,88-88A88.09957,88.09957,0,0,1,128,216Z"/><path d="M184,120H136V72a8,8,0,0,0-16,0v56a8.00008,8.00008,0,0,0,8,8h56a8,8,0,0,0,0-16Z"/></g></symbol>
  <symbol id="ph-dt-code" viewBox="0 0 256 256"><path d="M69.12158,94.14551,28.49658,128l40.625,33.85449a7.99987,7.99987,0,1,1-10.24316,12.291l-48-40a7.99963,7.99963,0,0,1,0-12.291l48-40a7.99987,7.99987,0,1,1,10.24316,12.291Zm176,27.709-48-40a7.99987,7.99987,0,1,0-10.24316,12.291L227.50342,128l-40.625,33.85449a7.99987,7.99987,0,1,0,10.24316,12.291l48-40a7.99963,7.99963,0,0,0,0-12.291Zm-82.38769-89.373a8.00439,8.00439,0,0,0-10.25244,4.78418l-64,176a8.00034,8.00034,0,1,0,15.0371,5.46875l64-176A8.0008,8.0008,0,0,0,162.73389,32.48145Z"/></symbol>
  <symbol id="ph-dt-gear" viewBox="0 0 256.00098 256.00098"><path d="M211.8501,133.12744c.20752-3.41528-.00049-10.25464-.00049-10.25464l16.5542-22.07177a103.36316,103.36316,0,0,0-10.16358-24.5608L190.918,72.33862a84.52765,84.52765,0,0,0-7.25195-7.25219L179.76514,37.7749a103.36081,103.36081,0,0,0-24.5542-10.18017l-22.07862,16.561a84.505,84.505,0,0,0-10.25586,0l-22.0708-16.55395A103.37063,103.37063,0,0,0,76.24512,37.76562L72.34375,65.08789a84.46168,84.46168,0,0,0-7.25244,7.2522L37.77979,76.24072a103.37861,103.37861,0,0,0-10.18018,24.5542l16.561,22.07862c-.20752,3.41528.00049,10.25463.00049,10.25463L27.60693,155.2a103.36309,103.36309,0,0,0,10.16358,24.56079l27.32226,3.90161a84.46312,84.46312,0,0,0,7.25244,7.2522l3.9004,27.31152a103.36018,103.36018,0,0,0,24.55419,10.18018l22.07862-16.561a84.50294,84.50294,0,0,0,10.25586,0l22.0708,16.554a103.37032,103.37032,0,0,0,24.56054-10.16382l3.90186-27.32226c2.56152-2.26807,7.25049-7.25171,7.25049-7.25171l27.313-3.90113a103.37883,103.37883,0,0,0,10.18017-24.5542ZM128.00488,176a48,48,0,1,1,48-48A47.99988,47.99988,0,0,1,128.00488,176Z" opacity="0.2"/><path d="M128.00488,72a56,56,0,1,0,56,56A56.06353,56.06353,0,0,0,128.00488,72Zm0,96a40,40,0,1,1,40-40A40.04521,40.04521,0,0,1,128.00488,168Zm106.80567-17.59424-14.87793-19.835c.02246-1.75244.00439-3.62207-.02149-5.11377l14.89258-19.856a8.00087,8.00087,0,0,0,1.32422-6.88476,111.46438,111.46438,0,0,0-10.95068-26.46094,7.99975,7.99975,0,0,0-5.80616-3.93457l-24.4873-3.49707q-1.7981-1.90282-3.70313-3.70361l-3.49609-24.47657a8.00014,8.00014,0,0,0-3.93262-5.80419,111.45388,111.45388,0,0,0-26.45312-10.96729,8.00184,8.00184,0,0,0-6.88819,1.32275L130.62305,36.0376c-1.74414-.04834-3.49317-.04834-5.23731,0L105.60645,21.20215a8.00208,8.00208,0,0,0-6.88526-1.32373A111.45837,111.45837,0,0,0,72.26025,30.82861a8.00166,8.00166,0,0,0-3.93505,5.80616L64.82861,61.12158q-1.90209,1.79809-3.70361,3.7041L36.64844,68.32129a7.99957,7.99957,0,0,0-5.8042,3.93213A111.45394,111.45394,0,0,0,19.877,98.70752a7.99838,7.99838,0,0,0,1.32325,6.88769l14.87792,19.835c-.02246,1.75244-.00439,3.62207.02149,5.11377L21.207,150.3999a8.00089,8.00089,0,0,0-1.32422,6.88477A111.46458,111.46458,0,0,0,30.8335,183.74561a7.99971,7.99971,0,0,0,5.80615,3.93457l24.4873,3.49707q1.79809,1.90283,3.70313,3.70361l3.49609,24.47656a8.00017,8.00017,0,0,0,3.93262,5.8042,111.45423,111.45423,0,0,0,26.45312,10.96729,7.99972,7.99972,0,0,0,6.88819-1.32276l19.7876-14.84277c1.74414.04932,3.49316.04932,5.2373,0l19.7793,14.83545a7.99851,7.99851,0,0,0,6.88525,1.32373,111.45823,111.45823,0,0,0,26.46094-10.9502,8.00166,8.00166,0,0,0,3.93506-5.80615l3.50488-24.54541c1.25488-1.22363,2.56348-2.5581,3.60059-3.63135l24.57128-3.50976a7.99957,7.99957,0,0,0,5.8042-3.93213,111.45394,111.45394,0,0,0,10.96729-26.4541A7.99843,7.99843,0,0,0,234.81055,150.40576Zm-21.668,22-23.356,3.33643a7.99832,7.99832,0,0,0-4.69482,2.437c-1.23633,1.31348-4.8545,5.08594-6.72754,6.74414a7.99806,7.99806,0,0,0-2.6167,4.85889L172.41113,213.144a95.42706,95.42706,0,0,1-15.60449,6.45655l-18.87207-14.15528a8.00657,8.00657,0,0,0-5.28516-1.58545,76.72117,76.72117,0,0,1-9.28613,0,8.00177,8.00177,0,0,0-5.28516,1.58545L99.19971,219.606a95.44381,95.44381,0,0,1-15.59961-6.46875l-3.33545-23.354a8.00076,8.00076,0,0,0-2.6167-4.8584,76.93262,76.93262,0,0,1-6.56592-6.56591,7.99808,7.99808,0,0,0-4.8584-2.61573l-23.36181-3.33642a95.49848,95.49848,0,0,1-6.45655-15.60449L50.561,137.92871a8.0021,8.0021,0,0,0,1.59619-5.04346c-.05469-1.80322-.16309-7.02929-.01172-9.52587a7.997,7.997,0,0,0-1.585-5.28614L36.39941,99.19482a95.50434,95.50434,0,0,1,6.46875-15.59961l23.3545-3.33544a7.99759,7.99759,0,0,0,4.85839-2.61622,76.92836,76.92836,0,0,1,6.56543-6.56591,7.99809,7.99809,0,0,0,2.6167-4.85889l3.33643-23.36182A95.4279,95.4279,0,0,1,99.2041,36.40039l18.87207,14.15527a8.01671,8.01671,0,0,0,5.28516,1.58545,76.52156,76.52156,0,0,1,9.28613,0,7.99816,7.99816,0,0,0,5.28516-1.58545L156.811,36.395a95.44232,95.44232,0,0,1,15.5996,6.46875l3.33545,23.354a8.0007,8.0007,0,0,0,2.6167,4.8584,76.93274,76.93274,0,0,1,6.56592,6.56592,7.998,7.998,0,0,0,4.8584,2.61572l23.36182,3.33643a95.499,95.499,0,0,1,6.45654,15.60449l-14.15576,18.87354a8.002,8.002,0,0,0-1.59619,5.04345c.05468,1.80323.16308,7.0293.01171,9.52588a7.99693,7.99693,0,0,0,1.585,5.28613l14.16113,18.87842A95.504,95.504,0,0,1,213.14258,172.40576Z"/></symbol>
  <symbol id="ph-dt-chat-centered" viewBox="0 0 256.00098 256.00098"><g opacity="0.2"><path d="M149.66907,195.88358l-14.80961,24.68269a8,8,0,0,1-13.71989,0l-14.80964-24.68272a8,8,0,0,0-6.85994-3.884H39.99951a8,8,0,0,1-8-8V56a8,8,0,0,1,8-8h176a8,8,0,0,1,8,8V184a8,8,0,0,1-8,8l-59.47039-.00041A8,8,0,0,0,149.66907,195.88358Z"/></g><path d="M127.999,232.4502a15.86929,15.86929,0,0,1-13.71875-7.76758L99.46973,200,40,199.999a16.01833,16.01833,0,0,1-16-16V56A16.01833,16.01833,0,0,1,40,40H216a16.01833,16.01833,0,0,1,16,16V184a16.01853,16.01853,0,0,1-16.001,16H156.5293l-6.86035-4.11621L156.5293,200l-14.80957,24.68262A15.87248,15.87248,0,0,1,127.999,232.4502ZM40,56V183.999H99.46973a16.07989,16.07989,0,0,1,13.71972,7.76856L128,216.4502l14.80859-24.68262h.001A16.08114,16.08114,0,0,1,156.5293,184H215.999L216,56Z"/></symbol>
  <symbol id="ph-dt-chat-centered-dots" viewBox="0 0 256.00098 256.00098"><g opacity="0.2"><path d="M149.67005,195.88358l-14.80962,24.68269a8,8,0,0,1-13.71989,0l-14.80963-24.68272a8,8,0,0,0-6.85994-3.884H40.00049a8,8,0,0,1-8-8V56a8,8,0,0,1,8-8h176a8,8,0,0,1,8,8V184a8,8,0,0,1-8.00006,8l-59.47038-.00041A8,8,0,0,0,149.67005,195.88358Z"/></g><g><path d="M216.001,40h-176a16.01833,16.01833,0,0,0-16,16V183.999a16.01833,16.01833,0,0,0,16,16L99.4707,200l14.81055,24.68262a16.00023,16.00023,0,0,0,27.43945,0L156.53027,200H216a16.01854,16.01854,0,0,0,16.001-16V56A16.01833,16.01833,0,0,0,216.001,40ZM216,184H156.53027a16.08112,16.08112,0,0,0-13.71972,7.76758h-.001L128.001,216.4502l-14.81055-24.68262A16.07991,16.07991,0,0,0,99.4707,183.999H40.001V56h176Z"/><circle cx="128.00049" cy="120.00049" r="12"/><circle cx="80.00049" cy="120.00049" r="12"/><circle cx="176.00049" cy="120.00049" r="12"/></g></symbol>
  <symbol id="ph-dt-copy" viewBox="0 0 255.99316 255.99316"><path d="M216,39.99316v128H168v-80H88v-48Z" opacity="0.2"/><path d="M216,31.99316H88a8.0004,8.0004,0,0,0-8,8v40.001H39.999a8.0004,8.0004,0,0,0-8,8v128a8.0004,8.0004,0,0,0,8,8h128a8.00039,8.00039,0,0,0,8-8v-40.001H216a8.00039,8.00039,0,0,0,8-8v-128A8.0004,8.0004,0,0,0,216,31.99316Zm-56.001,176.001h-112v-112h112ZM208,159.99316H175.999v-71.999a8.00039,8.00039,0,0,0-8-8H96v-32.001H208Z"/></symbol>
  <symbol id="ph-dt-arrow-circle-right" viewBox="0 0 256 256"><g opacity="0.2"><circle cx="128" cy="128" r="96"/></g><g><path d="M128,24A104,104,0,1,0,232,128,104.11791,104.11791,0,0,0,128,24Zm0,192a88,88,0,1,1,88-88A88.09957,88.09957,0,0,1,128,216Z"/><path d="M139.71582,88.40186a8,8,0,1,0-11.31348,11.314L148.68652,120H88a8,8,0,0,0,0,16h60.68652l-20.28418,20.28418a8,8,0,1,0,11.31348,11.314l33.94092-33.94091a8.00034,8.00034,0,0,0,0-11.31446Z"/></g></symbol>
  <symbol id="ph-dt-arrow-circle-down" viewBox="0 0 256 256"><g opacity="0.2"><circle cx="128" cy="128" r="96"/></g><g><path d="M128,24A104,104,0,1,0,232,128,104.11791,104.11791,0,0,0,128,24Zm0,192a88,88,0,1,1,88-88A88.09957,88.09957,0,0,1,128,216Z"/><path d="M156.28418,128.40186,136,148.68652V88a8,8,0,0,0-16,0v60.68652L99.71582,128.40186a8,8,0,1,0-11.31348,11.314l33.94043,33.94092a8.00063,8.00063,0,0,0,11.31446,0l33.94043-33.94092a8,8,0,1,0-11.31348-11.314Z"/></g></symbol>
  <symbol id="ph-dt-heart" viewBox="0 0 256 256"><g opacity="0.2"><path d="M128.0293,216s-100-56-100-124A52.00881,52.00881,0,0,1,128.02938,71.965l-.0002.00008A52.00882,52.00882,0,0,1,228.0293,92C228.0293,160,128.0293,216,128.0293,216Z"/></g><path d="M128.0293,224a7.99773,7.99773,0,0,1-3.90918-1.0199C119.87012,220.6,20.0293,163.86267,20.0293,92a60.02038,60.02038,0,0,1,108-36.04071A60.02038,60.02038,0,0,1,236.0293,92c0,30.56506-17.71387,62.005-52.64844,93.44641a317.36671,317.36671,0,0,1-51.44238,37.53369A7.99779,7.99779,0,0,1,128.0293,224Zm-3.90918-14.9801v0ZM80.0293,48a44.04982,44.04982,0,0,0-44,44c0,55.24493,73.98047,103.71875,91.99707,114.70068C146.03711,195.70569,220.0293,147.16217,220.0293,92a44.00852,44.00852,0,0,0-84.61817-16.95044,8.00055,8.00055,0,0,1-14.76367,0A43.91232,43.91232,0,0,0,80.0293,48Z"/></symbol>
  <symbol id="ph-dt-bell-slash" viewBox="0 0 256 256"><g opacity="0.2"><path d="M56.20305,103.97925a71.899,71.899,0,0,1,72.34535-71.998c39.58967.29432,71.25651,33.20133,71.25651,72.90185v7.09613c0,35.81563,7.49325,56.59893,14.093,67.95814a7.999,7.999,0,0,1-6.88165,12.04186H48.98365A7.99908,7.99908,0,0,1,42.103,179.93566c6.60328-11.35959,14.1-32.1426,14.1-67.95641Z"/></g><path d="M53.91992,34.61816A8.0006,8.0006,0,1,0,42.08008,45.38184L58.93164,63.91846A79.70131,79.70131,0,0,0,48.20312,104v8c0,34.33594-7.0791,53.7207-13.0166,63.93555A15.99886,15.99886,0,0,0,48.9834,200H88a40,40,0,0,0,80,0h14.64209l19.438,21.38184a8.0006,8.0006,0,1,0,11.83984-10.76368ZM128,224a24.0275,24.0275,0,0,1-24-24h48A24.0275,24.0275,0,0,1,128,224ZM49.01855,183.97656C55.94629,172.06055,64.20312,149.90039,64.20312,112v-8a63.87325,63.87325,0,0,1,6.17432-27.49121l97.71631,107.488ZM85.56836,45.36328a7.99916,7.99916,0,0,1,2.97852-10.91406A79.96341,79.96341,0,0,1,128.6084,24.002c43.66894.32422,79.19629,36.61719,79.19629,80.90235V112c0,21.85059,2.84179,40.14844,8.44531,54.38672a8.00007,8.00007,0,1,1-14.88867,5.85937c-6.34082-16.1123-9.55664-36.38183-9.55664-60.24609v-7.0957c0-35.52832-28.40332-64.64356-63.31543-64.90235A63.59917,63.59917,0,0,0,96.48242,48.3418,7.99941,7.99941,0,0,1,85.56836,45.36328Z"/></symbol>
  <symbol id="ph-dt-download" viewBox="0 0 256 256"><g opacity="0.2"><rect x="24" y="128" width="208" height="80" rx="8"/></g><g><circle cx="188.00049" cy="168" r="12"/><path d="M224,120H176a8,8,0,0,0,0,16h48v64H32V136H80a8,8,0,0,0,0-16H32a16.01833,16.01833,0,0,0-16,16v64a16.01833,16.01833,0,0,0,16,16H224a16.01833,16.01833,0,0,0,16-16V136A16.01833,16.01833,0,0,0,224,120Z"/><path d="M122.34326,133.65723c.02588.02588.05469.04785.08106.07324.16211.15771.32861.31152.50341.45508.09766.08008.20118.15039.30176.22558.1084.08106.21485.165.32764.24073.11621.07812.2373.1455.35693.21679.10449.0625.20655.12793.31446.18555.12011.06445.24414.11914.36669.17676.11426.0542.22657.11084.34327.15967.11816.04882.23925.08837.35937.13134.126.04541.251.09375.37988.13282.11963.03613.24122.063.36231.09326.13184.0332.26269.07031.397.09716.13965.02735.28028.04395.42041.064.11817.01709.23389.03906.353.05078.26269.02588.52588.04.78955.04s.52686-.01416.78955-.04c.11914-.01172.23486-.03369.353-.05078.14013-.02.28076-.03662.42041-.064.13428-.02685.26513-.064.397-.09716.12109-.03028.24268-.05713.36231-.09326.1289-.03907.2539-.08741.37988-.13282.12012-.043.24121-.08252.35937-.13134.1167-.04883.229-.10547.34327-.15967.12255-.05762.24658-.11231.36669-.17676.10791-.05762.21-.12305.31446-.18555.11963-.07129.24072-.13867.35693-.21679.11279-.07569.21924-.15967.32764-.24073.10058-.07519.2041-.1455.30176-.22558.17822-.14649.34765-.30225.51269-.46338.023-.023.04883-.042.07178-.06494l48-48a8.00018,8.00018,0,1,0-11.31348-11.31446L136,108.68652V24a8,8,0,0,0-16,0v84.68652L85.65674,74.34277A8.00018,8.00018,0,0,0,74.34326,85.65723Z"/></g></symbol>
  <symbol id="ph-dt-pencil" viewBox="0 0 256 256"><g opacity="0.2"><path d="M136,64l56,56,26.34315-26.34315a8,8,0,0,0,0-11.3137l-44.6863-44.6863a8,8,0,0,0-11.3137,0Z"/></g><path d="M224,76.68652,179.314,32a15.99948,15.99948,0,0,0-22.62744,0L130.34479,58.3418l-.00153.00146-.0014.00147L36.687,151.99951a15.95215,15.95215,0,0,0-3.574,5.459c-.07917.19238-.14551.38818-.20911.585a15.99183,15.99183,0,0,0-.90387,5.27V208a16.01833,16.01833,0,0,0,16,16H92.68652a15.97724,15.97724,0,0,0,5.70423-1.05908c.03845-.01514.078-.02588.11633-.04151A15.95471,15.95471,0,0,0,104,219.31348l120.00049-120A16.01823,16.01823,0,0,0,224,76.68652ZM48,179.31348,76.6864,208H48Zm48.00006,25.373L51.31366,160l84.6864-84.68652L180.68646,120Zm96-96L147.31366,64,168,43.31348,212.68652,88Z"/></symbol>
  <symbol id="ph-dt-dots-three-outline" viewBox="0 0 256 256"><g opacity="0.1"><circle cx="128" cy="128" r="24"/></g><g opacity="0.1"><circle cx="48" cy="128" r="24"/></g><g opacity="0.1"><circle cx="208" cy="128" r="24"/></g><g><path d="M128,96a32,32,0,1,0,32,32A32.03635,32.03635,0,0,0,128,96Zm0,48a16,16,0,1,1,16-16A16.01833,16.01833,0,0,1,128,144Z"/><path d="M48,96a32,32,0,1,0,32,32A32.03635,32.03635,0,0,0,48,96Zm0,48a16,16,0,1,1,16-16A16.01833,16.01833,0,0,1,48,144Z"/><path d="M208,96a32,32,0,1,0,32,32A32.03635,32.03635,0,0,0,208,96Zm0,48a16,16,0,1,1,16-16A16.01833,16.01833,0,0,1,208,144Z"/></g></symbol>
  <symbol id="ph-dt-dots-three-outline-vertical" viewBox="0 0 256 256"><g opacity="0.1"><circle cx="128" cy="128" r="24"/></g><g opacity="0.1"><circle cx="128" cy="48" r="24"/></g><g opacity="0.1"><circle cx="128" cy="208" r="24"/></g><g><path d="M128,96a32,32,0,1,0,32,32A32.03667,32.03667,0,0,0,128,96Zm0,48a16,16,0,1,1,16-16A16.01833,16.01833,0,0,1,128,144Z"/><path d="M128,80A32,32,0,1,0,96,48,32.03667,32.03667,0,0,0,128,80Zm0-48a16,16,0,1,1-16,16A16.01833,16.01833,0,0,1,128,32Z"/><path d="M128,176a32,32,0,1,0,32,32A32.03667,32.03667,0,0,0,128,176Zm0,48a16,16,0,1,1,16-16A16.01833,16.01833,0,0,1,128,224Z"/></g></symbol>
  <symbol id="ph-dt-envelope" viewBox="0 0 256 256"><g opacity="0.2"><polygon points="224.006 56 128.006 144 32.006 56 224.006 56"/></g><path d="M231.99023,55.80933q-.00511-.22192-.02246-.44312-.01391-.18054-.03564-.35864c-.01709-.13819-.03858-.27564-.063-.41309-.022-.124-.0459-.24707-.07324-.36889-.02979-.13038-.064-.25953-.1001-.38843-.03467-.12329-.07031-.24536-.11035-.366-.042-.126-.08887-.25-.13721-.374-.0459-.11865-.09326-.23609-.14453-.35156-.05469-.12207-.11377-.24195-.17432-.36158-.05761-.11352-.11669-.22583-.17919-.33618-.06543-.114-.13428-.22607-.20508-.33765-.07178-.11254-.14551-.2229-.22266-.33154-.07226-.10229-.148-.20263-.22558-.30224-.0879-.11206-.17872-.221-.272-.32813-.04394-.05054-.082-.10425-.12744-.154-.03857-.042-.08105-.07764-.1206-.11865-.0962-.10108-.19629-.198-.29786-.29395-.09423-.08887-.189-.177-.28662-.26074-.09619-.082-.19531-.15967-.29541-.23731-.10937-.085-.21826-.16919-.33105-.24755-.09766-.06812-.19873-.13135-.29932-.19507-.11914-.0752-.23779-.15015-.35986-.21851-.10645-.05957-.21582-.11352-.32471-.16821-.1206-.0603-.24023-.1211-.36328-.175-.11963-.05274-.24219-.09863-.36475-.14551-.11767-.04492-.23486-.09057-.354-.12964-.12939-.04272-.26172-.07837-.39355-.1145-.11866-.03223-.23633-.0647-.35547-.09131-.13184-.02954-.26563-.05273-.39991-.07568-.12646-.02149-.25293-.04248-.38037-.05786-.12646-.01538-.2539-.02564-.38232-.03491-.13965-.01026-.2793-.01832-.41943-.02125C224.1123,48.00732,224.05713,48,224,48H32c-.05371,0-.10547.00708-.15918.00806-.14746.00293-.29492.01123-.44189.02221-.12159.00928-.24219.0188-.36182.03321-.13428.01611-.26758.03808-.40137.06128-.12744.022-.25488.0437-.37988.07177-.126.02808-.25.06226-.375.09644-.126.03467-.25195.0686-.37549.10913-.125.041-.248.08862-.37158.136-.1167.04492-.23389.08886-.34815.13891-.12744.05591-.252.1189-.377.18189-.105.05273-.21.10424-.312.16137-.125.07007-.24707.147-.36914.22437-.09766.062-.19629.12353-.291.1897-.11474.07959-.22558.165-.33642.25146-.09864.07642-.19629.15308-.291.23413-.09863.08423-.19385.17285-.28955.26294-.10107.09522-.20019.1919-.29639.29224-.03906.04126-.082.07715-.1206.11914-.04541.0498-.0835.10351-.12744.154-.09326.10718-.18408.21607-.272.32813-.07763.09961-.15332.2-.22558.30224-.07715.10864-.15088.219-.22266.33154-.0708.11158-.13965.22364-.20508.33765-.0625.11035-.12158.22266-.17919.33618-.06055.11963-.11963.23951-.17432.36158-.05127.11547-.09863.23291-.14453.35156-.04834.124-.09522.248-.13721.374-.04.12061-.07568.24268-.11035.366-.03613.1289-.07031.25805-.1001.38843-.02734.12182-.05127.24487-.07324.36889-.02441.13745-.0459.2749-.063.41309q-.022.17834-.03564.35864-.01758.22156-.02246.44312C24.0083,55.87329,24,55.93555,24,56V192a16.01833,16.01833,0,0,0,16,16H216a16.01833,16.01833,0,0,0,16-16V56C232,55.93555,231.9917,55.87329,231.99023,55.80933ZM40,74.18628l58.70605,53.814L40,181.814Zm100.14209,47.83081-.00586.00537L128,133.14746,52.56689,64H203.43311ZM110.5459,138.85327l12.04785,11.04395a8.00113,8.00113,0,0,0,10.8125,0L145.45459,138.853,203.43311,192H52.56738ZM157.294,128l58.70751-53.81519.00782,107.63672Z"/></symbol>
  <symbol id="ph-dt-eye-slash" viewBox="0 0 256 256"><g opacity="0.2"><path d="M128,56C48,56,16,128.00781,16,128.00781S48,200,128,200s112-71.99219,112-71.99219S208,56,128,56Zm0,112.0083a40,40,0,1,1,40-40A40.0001,40.0001,0,0,1,128,168.0083Z"/></g><g><path d="M53.91992,34.6178A8.0006,8.0006,0,1,0,42.08008,45.38147L61.31689,66.54211C24.99927,88.83313,9.385,123.18664,8.68945,124.75061a8.00282,8.00282,0,0,0,0,6.49805c.35157.791,8.82032,19.57226,27.6543,38.40429C61.42773,194.734,93.12207,207.99182,128,207.99182a126.97057,126.97057,0,0,0,52.061-10.831l22.019,24.2207a8.0006,8.0006,0,0,0,11.83984-10.76367ZM101.24609,110.464l41.67359,45.84131A31.98764,31.98764,0,0,1,101.24609,110.464ZM128,191.99182c-30.78027,0-57.67383-11.18555-79.93457-33.24609A133.45825,133.45825,0,0,1,24.94824,127.9928c4.69385-8.78858,19.66309-33.38575,47.34424-49.37793L90.25366,98.37219a47.98664,47.98664,0,0,0,63.65845,70.02442L168.6333,184.59A111.979,111.979,0,0,1,128,191.99182Z"/><path d="M247.31055,124.75061c-.35157-.79-8.81934-19.57617-27.65332-38.41113C194.57324,61.25256,162.87793,47.99182,128,47.99182a133.88152,133.88152,0,0,0-22.001,1.794A8,8,0,0,0,108.63574,65.567,117.88187,117.88187,0,0,1,128,63.99182c30.7793,0,57.67383,11.18848,79.93457,33.25391a133.43711,133.43711,0,0,1,23.11231,30.752,133.619,133.619,0,0,1-27.7754,35.14258,8.00016,8.00016,0,0,0,10.67579,11.918c22.81543-20.43555,32.94336-42.86426,33.36328-43.80957A8.00282,8.00282,0,0,0,247.31055,124.75061Z"/><path d="M159.85938,124.9801a8.00191,8.00191,0,0,0,7.95605,7.25781c.249,0,.501-.01171.75293-.03515a8.00157,8.00157,0,0,0,7.22266-8.709,48.17365,48.17365,0,0,0-38.76661-42.64453,7.99973,7.99973,0,0,0-2.99414,15.7168A32.09805,32.09805,0,0,1,159.85938,124.9801Z"/></g></symbol>
  <symbol id="ph-dt-eye" viewBox="0 0 256 256"><g opacity="0.2"><path d="M127.99414,55.99231c-80,0-112,72.00781-112,72.00781s32,71.99219,112,71.99219,112-71.99219,112-71.99219S207.99414,55.99231,127.99414,55.99231Zm0,112.0083a40,40,0,1,1,40-40A40.0001,40.0001,0,0,1,127.99414,168.00061Z"/></g><g><path d="M247.30469,124.75061c-.35157-.79-8.81934-19.57617-27.65332-38.41113-25.084-25.08692-56.7793-38.34766-91.65723-38.34766S61.4209,61.25256,36.33691,86.33948c-18.834,18.835-27.30175,37.62109-27.65332,38.41113a8.00282,8.00282,0,0,0,0,6.49805c.35157.791,8.82032,19.57226,27.6543,38.40429,25.084,25.08106,56.77832,38.33887,91.65625,38.33887S194.56641,194.734,219.65039,169.653c18.834-18.832,27.30273-37.61328,27.6543-38.40429A8.00282,8.00282,0,0,0,247.30469,124.75061ZM127.99414,191.99182c-30.78027,0-57.67383-11.18555-79.93457-33.24609a133.46132,133.46132,0,0,1-23.11328-30.7461,133.4854,133.4854,0,0,1,23.11328-30.7539C70.32031,75.1803,97.21484,63.99182,127.99414,63.99182S185.668,75.1803,207.92871,97.24573A133.46356,133.46356,0,0,1,231.043,128.00061C223.83008,141.4508,192.42578,191.99182,127.99414,191.99182Z"/><path d="M127.99414,80.00061a48,48,0,1,0,48,48A48.05375,48.05375,0,0,0,127.99414,80.00061Zm0,80a32,32,0,1,1,32-32A32.03667,32.03667,0,0,1,127.99414,160.00061Z"/></g></symbol>
  <symbol id="ph-dt-image" viewBox="0 0 256 256"><g opacity="0.2"><path d="M32,167.99982l50.343-50.343a8,8,0,0,1,11.31371,0l44.68629,44.6863a8,8,0,0,0,11.31371,0l20.68629-20.6863a8,8,0,0,1,11.31371,0L223.99982,184,224,56a8,8,0,0,0-8-8H40a8,8,0,0,0-8,8Z"/></g><path d="M231.99951,183.99451V56.00012a16.01833,16.01833,0,0,0-16-16h-176a16.01834,16.01834,0,0,0-16,16V199.99963a16.01833,16.01833,0,0,0,16,16h176a16.01833,16.01833,0,0,0,16-16V183.99451Zm-16-127.99439.0083,108.6933L187.314,136.00012a16.019,16.019,0,0,0-22.62792,0l-20.68555,20.68652L99.314,112.00012a16.019,16.019,0,0,0-22.62792,0L39.99951,148.68561V56.00012Zm0,143.99951h-176V171.31409l48-48.00049,44.68653,44.687a16.0024,16.0024,0,0,0,22.62792,0l20.68555-20.687,40.00977,40.01025.001,12.67578ZM147.51416,108.485a12.00018,12.00018,0,1,1,20.48633-8.48486v.00342a12.00044,12.00044,0,0,1-20.48633,8.48144Z"/></symbol>
  <symbol id="ph-dt-trash" viewBox="0 0 256 256"><g opacity="0.2"><path d="M199.99609,56.00005V208a8,8,0,0,1-8,8h-128a8,8,0,0,1-8-8v-152Z"/></g><g><path d="M215.99609,48H176V40a24.02718,24.02718,0,0,0-24-24H104A24.02718,24.02718,0,0,0,80,40v8H39.99609a8,8,0,0,0,0,16h8V208a16.01833,16.01833,0,0,0,16,16h128a16.01833,16.01833,0,0,0,16-16V64h8a8,8,0,0,0,0-16ZM96,40a8.00917,8.00917,0,0,1,8-8h48a8.00917,8.00917,0,0,1,8,8v8H96Zm95.99609,168h-128V64h128Z"/><path d="M104,96a8.00008,8.00008,0,0,0-8,8v64a8,8,0,0,0,16,0V104A8.00008,8.00008,0,0,0,104,96Z"/><path d="M152,96a8.00008,8.00008,0,0,0-8,8v64a8,8,0,0,0,16,0V104A8.00008,8.00008,0,0,0,152,96Z"/></g></symbol>
  <symbol id="ph-dt-flag" viewBox="0 0 256 256"><g opacity="0.2"><path d="M39.99951,168.00452c64-48,112,48,176,0v-120c-64,48-112-48-176,0Z"/></g><path d="M219.57812,40.84924a7.99641,7.99641,0,0,0-8.37792.75489C182.90039,62.82971,158.918,52.55139,131.15137,40.651c-28.24317-12.10449-60.25391-25.81934-95.95117.95313-.04737.0354-.08838.07568-.13428.11181-.11084.08692-.21778.17676-.32373.26929-.09912.08667-.19727.17407-.291.26465-.0874.08423-.17138.17138-.25488.25952-.1001.10547-.19873.21142-.292.32129-.0708.08349-.1377.16968-.20508.25586-.09277.11865-.18457.23779-.26953.36084-.06348.09082-.12158.18457-.18115.27807-.07715.12232-.1543.24439-.22461.37036-.06006.10694-.11475.217-.16993.32715-.0581.1167-.11718.23291-.16943.35181-.05566.126-.105.25513-.1543.38428-.0415.10913-.08349.218-.12011.32861-.04541.137-.084.27661-.12207.417-.03028.11084-.06055.22119-.08594.33325-.03027.13526-.05518.27271-.07861.41065-.02149.12524-.042.25024-.05762.37646-.01514.12427-.02588.24927-.03565.37525-.01074.14575-.01855.2915-.022.43774-.001.05615-.0083.11035-.0083.16651v168a8,8,0,0,0,16,0V172.13879c26.92334-18.16259,50.13428-8.22973,76.84863,3.21924,16.26367,6.96973,33.77539,14.47559,52.52246,14.47461,13.8086,0,28.28711-4.07226,43.42871-15.42773A8.00092,8.00092,0,0,0,224,168.00452v-120A8.00022,8.00022,0,0,0,219.57812,40.84924ZM208,163.8844c-26.92383,18.16406-50.13379,8.21582-76.84863-3.2334C106.32666,150.0116,78.59082,138.13293,48,153.59216V52.13879C74.92334,33.9762,98.13428,43.90906,124.84863,55.358,149.67188,65.99573,177.4082,77.87952,208,62.42151Z"/></symbol>
  <symbol id="ph-dt-folder-notch-open" viewBox="0 0 256 256"><g opacity="0.2"><path d="M69.416,128h48.16162a8.00257,8.00257,0,0,0,4.438-1.34375l19.96876-13.3125A8.00257,8.00257,0,0,1,146.42236,112H208V88a7.99977,7.99977,0,0,0-8-8H130.6665a7.9995,7.9995,0,0,1-4.7998-1.6001L98.1333,57.6001A7.9995,7.9995,0,0,0,93.3335,56H40a7.99977,7.99977,0,0,0-8,8V208l29.98828-74.97119A8.00025,8.00025,0,0,1,69.416,128Z"/></g><path d="M241.88037,110.64453A16.03934,16.03934,0,0,0,228.90039,104H216V88a16.01833,16.01833,0,0,0-16-16H130.667l-27.7334-20.7998A16.10323,16.10323,0,0,0,93.333,48H40A16.01833,16.01833,0,0,0,24,64V208a8.06184,8.06184,0,0,0,.04541.8457c.00293.02735.00928.0542.0127.08155a7.86829,7.86829,0,0,0,.13818.81543c.01562.07226.03711.14306.05517.21484.05665.22559.12159.44775.19727.665.02734.07812.05566.15527.08545.23242q.126.33033.28076.64551c.03076.064.05908.12842.09229.1914a7.98135,7.98135,0,0,0,1.01318,1.49952c.06055.07129.12451.13769.1875.20654.14063.15381.28662.30176.43945.44434.07276.06787.145.13525.22022.20068.17187.14844.3501.28808.53418.42187.05469.04.10693.084.16308.12207a7.91673,7.91673,0,0,0,.77246.47168c.0254.01368.05225.02442.07764.0376a7.86248,7.86248,0,0,0,.73779.33594c.07129.02832.14405.05322.2168.07959q.31715.11572.64649.20459c.085.023.16894.04541.25439.06543.21875.05127.44092.09131.666.124.08154.01221.16259.02783.24462.0376A8.04614,8.04614,0,0,0,32,216H208a8.00117,8.00117,0,0,0,7.58984-5.47021l28.48926-85.47022A16.03873,16.03873,0,0,0,241.88037,110.64453ZM93.333,64l27.7334,20.7998A16.10323,16.10323,0,0,0,130.667,88H200v16H146.42188a15.9479,15.9479,0,0,0-8.875,2.6875L117.57812,120H69.416a15.92344,15.92344,0,0,0-14.85547,10.05762L40,166.45947V64ZM202.23389,200H43.81641L69.416,136h48.1621a15.9479,15.9479,0,0,0,8.875-2.6875L146.42188,120h82.47851Z"/></symbol>
  <symbol id="ph-dt-folder" viewBox="0 0 256 256"><g opacity="0.2"><path d="M98.34315,50.34315,128,80H32V56a8,8,0,0,1,8-8H92.68629A8,8,0,0,1,98.34315,50.34315Z"/></g><path d="M216,72H131.31348L104,44.68652A15.89354,15.89354,0,0,0,92.68652,40H40A16.01833,16.01833,0,0,0,24,56V200.61523A15.40193,15.40193,0,0,0,39.38477,216h177.5039A15.12831,15.12831,0,0,0,232,200.88867V88A16.01833,16.01833,0,0,0,216,72ZM92.68652,56l16,16H40V56ZM216,200H40V88H216Z"/></symbol>
  <symbol id="ph-dt-house" viewBox="0 0 256 256"><g opacity="0.2"><path d="M151.99414,207.99263v-48.001a8,8,0,0,0-8-8h-32a8,8,0,0,0-8,8v48.001a8,8,0,0,1-7.999,8l-47.99414.00632a8,8,0,0,1-8.001-8v-92.4604a8,8,0,0,1,2.61811-5.91906l79.9945-72.73477a8,8,0,0,1,10.76339-.00036l80.0055,72.73509A8,8,0,0,1,216,115.53887V207.999a8,8,0,0,1-8.001,8l-48.00586-.00632A8,8,0,0,1,151.99414,207.99263Z"/></g><path d="M208,223.999h-.00195l-48.00586-.00634a16.01856,16.01856,0,0,1-15.99805-16v-48.001h-32v48.001a16.01856,16.01856,0,0,1-15.99805,16L48.002,223.999A15.99994,15.99994,0,0,1,32,207.999V115.53857a16.03108,16.03108,0,0,1,5.2373-11.83886l79.99317-72.73389a15.93657,15.93657,0,0,1,21.52637-.00146l80.00683,72.73584A16.03567,16.03567,0,0,1,224,115.53906v92.46a15.99994,15.99994,0,0,1-16,16ZM111.99414,143.9917h32a16.01833,16.01833,0,0,1,16,16v48.01123L208,207.999v-92.46L127.99414,42.80371,48,115.53857V207.999l47.99414-.00634v-48.001A16.01833,16.01833,0,0,1,111.99414,143.9917Z"/></symbol>
  <symbol id="ph-dt-hourglass-high" viewBox="0 0 256 256"><g opacity="0.2"><path d="M128,128,67.2,82.4A8,8,0,0,1,64,76V63.99548H192V75.6412a8,8,0,0,1-3.17594,6.38188L128,128h0"/></g><path d="M184,24H72A16.01833,16.01833,0,0,0,56,40V76a16.07553,16.07553,0,0,0,6.3999,12.7998L114.667,128l-52.2666,39.2002A16.07459,16.07459,0,0,0,56,180v36a16.01833,16.01833,0,0,0,16,16H184a16.01833,16.01833,0,0,0,16-16V180.35889a16.08452,16.08452,0,0,0-6.352-12.76416L141.2666,128l52.38184-39.59473A16.08547,16.08547,0,0,0,200,75.64111V40A16.01833,16.01833,0,0,0,184,24Zm0,16V55.99561H72V40Zm0,176H72V180l55.98145-41.98584L184,180.35889Zm-56.01855-98.01416L72,76V71.99561H184v3.646Z"/></symbol>
  <symbol id="ph-dt-info" viewBox="0 0 256 256"><path d="M224.00244,128a96,96,0,1,1-96-96A95.99983,95.99983,0,0,1,224.00244,128Z" opacity="0.2"/><path d="M128.002,23.99963a104,104,0,1,0,104,104A104.11791,104.11791,0,0,0,128.002,23.99963Zm0,192a88,88,0,1,1,88-88A88.09957,88.09957,0,0,1,128.002,215.99963Zm16-40a8.00039,8.00039,0,0,1-8,8h-8a8.00039,8.00039,0,0,1-8-8v-48a8,8,0,0,1,0-16h8a8.00039,8.00039,0,0,1,8,8v48A8.00039,8.00039,0,0,1,144.002,175.99963ZM114.00244,84a12,12,0,1,1,12,12A12,12,0,0,1,114.00244,84Z"/></symbol>
  <symbol id="ph-dt-text-italic" viewBox="0 0 256 256"><path d="M199.99414,55.99512a8.00008,8.00008,0,0,1-8,8H157.76007l-42.66663,128h28.9007a8,8,0,0,1,0,16H104.02307l-.028.002-.02741-.002H63.99414a8,8,0,0,1,0-16H98.22821l42.66663-128h-28.9007a8,8,0,0,1,0-16h80A8.00008,8.00008,0,0,1,199.99414,55.99512Z"/></symbol>
  <symbol id="ph-dt-key" viewBox="0 0 256 256"><g opacity="0.2"><path d="M93.16866,122.8328a71.93648,71.93648,0,1,1,40.0009,40.001l.00062-.00149L120.00244,176h-24v24h-24v24h-40V184l61.168-61.168Z"/></g><g><circle cx="180" cy="76" r="12"/><path d="M160.00244,16A80.05817,80.05817,0,0,0,83.91357,120.77539L26.34521,178.34277A8.00235,8.00235,0,0,0,24.00244,184v40a8.00039,8.00039,0,0,0,8,8h40a8.00039,8.00039,0,0,0,8-8V208h16a8.00039,8.00039,0,0,0,8-8V184h16a8.00235,8.00235,0,0,0,5.65723-2.34277l9.56738-9.56836A80.00922,80.00922,0,1,0,160.00244,16Zm0,144a63.689,63.689,0,0,1-23.65234-4.50977,8.00455,8.00455,0,0,0-8.83692,1.68457L116.689,168H96.00244a8.00039,8.00039,0,0,0-8,8v16h-16a8.00039,8.00039,0,0,0-8,8v16h-24V187.31348l58.8252-58.82422a8.00392,8.00392,0,0,0,1.68554-8.83594A64.01228,64.01228,0,1,1,160.00244,160Z"/></g></symbol>
  <symbol id="ph-dt-stack" viewBox="0 0 256 256"><g opacity="0.2"><polygon points="32 80 128 136 224 80 128 24 32 80"/></g><g><path d="M219.96875,169.08984,128,222.73828,36.03125,169.08984a8.00008,8.00008,0,0,0-8.0625,13.82032l96,56a8.00059,8.00059,0,0,0,8.0625,0l96-56a8.00008,8.00008,0,0,0-8.0625-13.82032Z"/><path d="M219.96875,121.08984,128,174.73828,36.03125,121.08984a8.00008,8.00008,0,0,0-8.0625,13.82032l96,56a8.00059,8.00059,0,0,0,8.0625,0l96-56a8.00008,8.00008,0,0,0-8.0625-13.82032Z"/><path d="M27.96875,86.91016l96,56a8.00059,8.00059,0,0,0,8.0625,0l96-56a8.00016,8.00016,0,0,0,0-13.82032l-96-56a8.00059,8.00059,0,0,0-8.0625,0l-96,56a8.00016,8.00016,0,0,0,0,13.82032ZM128,33.26172,208.12305,80,128,126.73828,47.877,80Z"/></g></symbol>
  <symbol id="ph-dt-link-simple-horizontal" viewBox="0 0 256 256"><path d="M79.96582,119.99219h96a8,8,0,0,1,0,16h-96a8,8,0,0,1,0-16Zm23.99316,48.0039h-40a40,40,0,0,1,0-80h40a8,8,0,0,0,0-16h-40a56,56,0,0,0,0,112h40a8,8,0,0,0,0-16Zm88.00684-96h-40a8,8,0,0,0,0,16h40a40,40,0,0,1,0,80h-40a8,8,0,0,0,0,16h40a56,56,0,0,0,0-112Z"/></symbol>
  <symbol id="ph-dt-list-numbers" viewBox="0 0 256 256"><path d="M223.999,128a8.00039,8.00039,0,0,1-8,8H104a8,8,0,0,1,0-16H215.999A8.00039,8.00039,0,0,1,223.999,128ZM104,72H215.999a8,8,0,0,0,0-16H104a8,8,0,0,0,0,16ZM215.999,184h-112a8,8,0,1,0,0,16h112a8,8,0,0,0,0-16ZM43.57764,67.15527,48,64.94434v43.0498a8,8,0,1,0,16,0V52a7.99928,7.99928,0,0,0-11.57764-7.15527l-16,8a7.99984,7.99984,0,1,0,7.15528,14.31054ZM72.23828,170.30566a22.00226,22.00226,0,1,0-38.50635-20.87109A8,8,0,1,0,48.46826,155.667a6.00233,6.00233,0,1,1,10.59717,5.55176l-25.46729,33.9834A8.00014,8.00014,0,0,0,40,208H68a8,8,0,0,0,0-16H55.99219l16.01855-21.375Q72.12867,170.46827,72.23828,170.30566Z"/></symbol>
  <symbol id="ph-dt-lock" viewBox="0 0 256 256"><g opacity="0.2"><rect x="40" y="88" width="176" height="128" rx="8"/></g><g><circle cx="127.99414" cy="152" r="12"/><path d="M208,80H172V52a44,44,0,0,0-88,0V80H48A16.01833,16.01833,0,0,0,32,96V208a16.01833,16.01833,0,0,0,16,16H208a16.01833,16.01833,0,0,0,16-16V96A16.01833,16.01833,0,0,0,208,80ZM100,52a28,28,0,0,1,56,0V80H100ZM208,208H48V96H208l.01025,111.99951Z"/></g></symbol>
  <symbol id="ph-dt-users" viewBox="0 0 256 256"><g opacity="0.2"><circle cx="88.00033" cy="108" r="52"/></g><g><path d="M121.19867,157.94751a59.99991,59.99991,0,1,0-66.39655,0A96.21476,96.21476,0,0,0,9.45459,192.791a8.0001,8.0001,0,1,0,13.083,9.21093,80.01734,80.01734,0,0,1,130.92187-.00488,8,8,0,1,0,13.082-9.21191A96.2154,96.2154,0,0,0,121.19867,157.94751ZM44.00049,108a44,44,0,1,1,44,44A44.04978,44.04978,0,0,1,44.00049,108Z"/><path d="M248.06348,192.78516a96.21391,96.21391,0,0,0-45.3432-34.83765A60.00068,60.00068,0,0,0,153.24609,50.23584a8.00011,8.00011,0,0,0,4.333,15.40234A44.00588,44.00588,0,1,1,169.522,152a8,8,0,0,0,0,16,80.16839,80.16839,0,0,1,65.45948,33.99707,8,8,0,0,0,13.082-9.21191Z"/></g></symbol>
  <symbol id="ph-dt-arrow-right" viewBox="0 0 256 256"><path d="M221.65674,133.65723l-72,72a8.00018,8.00018,0,0,1-11.31348-11.31446L196.68652,136H40a8,8,0,0,1,0-16H196.68652L138.34326,61.65723a8.00018,8.00018,0,0,1,11.31348-11.31446l72,72A8.00034,8.00034,0,0,1,221.65674,133.65723Z"/></symbol>
  <symbol id="ph-dt-user" viewBox="0 0 256 256"><g opacity="0.2"><circle cx="128" cy="96" r="64"/></g><path d="M231.93652,211.98633a120.48718,120.48718,0,0,0-67.12-54.14258,72,72,0,1,0-73.633,0,120.48821,120.48821,0,0,0-67.11859,54.14062,7.99981,7.99981,0,1,0,13.84863,8.0127,104.0375,104.0375,0,0,1,180.17432.00195,7.99981,7.99981,0,1,0,13.84863-8.01269ZM72,96a56,56,0,1,1,56,56A56.06353,56.06353,0,0,1,72,96Z"/></symbol>
  <symbol id="ph-dt-user-plus" viewBox="0 0 256 256"><path d="M168,100a60,60,0,1,1-60-60A60,60,0,0,1,168,100Z" opacity="0.2"/><path d="M256,136a7.99977,7.99977,0,0,1-8,8H232v16a8,8,0,0,1-16,0V144H200a8,8,0,0,1,0-16h16V112a8,8,0,0,1,16,0v16h16A7.99977,7.99977,0,0,1,256,136Zm-56.082,58.85254a8.00018,8.00018,0,0,1-12.251,10.292A104.00694,104.00694,0,0,0,28.333,205.144a8,8,0,1,1-12.25049-10.292A119.88821,119.88821,0,0,1,71.8573,157.55811a68,68,0,1,1,72.2854,0A119.88993,119.88993,0,0,1,199.918,194.85254ZM108,152a52,52,0,1,0-52-52A52.059,52.059,0,0,0,108,152Z"/></symbol>
  <symbol id="ph-dt-at" viewBox="0 0 256 256"><g opacity="0.2"><circle cx="128" cy="127.99512" r="96"/></g><path d="M127.99512,23.99512a104,104,0,1,0,57.51074,190.66406,8.0001,8.0001,0,0,0-8.8584-13.32422,88.00791,88.00791,0,1,1,39.34766-73.33984c0,26.44824-10.876,32-20,32s-20-5.55176-20-32v-40a8,8,0,1,0-16,0v4.261a47.99882,47.99882,0,1,0,5.93066,65.10279c6.00391,11.97876,16.34961,18.63623,30.06934,18.63623,22.542,0,36-17.94434,36-48A104.1179,104.1179,0,0,0,127.99512,23.99512Zm0,136a32,32,0,1,1,32-32A32.03667,32.03667,0,0,1,127.99512,159.99512Z"/></symbol>
  <symbol id="ph-dt-check" viewBox="0 0 256 256"><path d="M103.99951,192.00012a7.97346,7.97346,0,0,1-5.65625-2.34277l-56-55.99561a7.99983,7.99983,0,1,1,11.3125-11.31445l50.34375,50.33935L210.34229,66.34778a8.00018,8.00018,0,0,1,11.31445,11.31347l-112,111.9961A7.97937,7.97937,0,0,1,103.99951,192.00012Z"/></symbol>
  <symbol id="ph-dt-arrow-arc-left" viewBox="0 0 256 256"><path d="M232,184a8,8,0,0,1-16,0A87.99889,87.99889,0,0,0,65.77539,121.77539L47.43262,140.11816H92.11816a8,8,0,0,1,0,16h-64c-.05981,0-.11743-.00781-.177-.00878-.20263-.0044-.40527-.01124-.60718-.03077-.1394-.01367-.27514-.03906-.41259-.05957-.12061-.01806-.2417-.03174-.36133-.05517-.146-.02881-.28784-.06836-.43091-.105-.11011-.02832-.2207-.05225-.32959-.085-.1355-.041-.2666-.09131-.39917-.13965-.11426-.041-.22925-.07862-.3418-.125-.11963-.04981-.23462-.10791-.35131-.16309-.12061-.05664-.24219-.11035-.36036-.17334-.10717-.05762-.20874-.12305-.313-.18506-.12037-.07177-.24244-.14013-.35962-.21826-.10718-.07178-.20752-.15185-.31079-.22851-.10669-.07911-.21582-.15381-.31958-.23877-.14478-.11914-.28077-.248-.417-.377-.05444-.05127-.11255-.09668-.166-.1499-.0564-.05664-.10425-.11768-.15869-.17578-.12525-.13281-.25122-.26514-.36719-.40625-.09107-.11084-.17114-.22705-.25537-.3418-.07056-.09521-.14478-.188-.21094-.28662-.085-.12646-.15894-.25781-.23584-.38818-.05566-.09424-.11523-.186-.16724-.28321-.06909-.1289-.12817-.26171-.18969-.39355-.04932-.10547-.102-.209-.147-.31641-.05224-.127-.095-.25586-.14062-.38476-.042-.11817-.08765-.23438-.12427-.355-.03906-.12891-.06787-.25977-.10034-.39014-.03052-.12305-.06519-.24414-.09009-.36914-.03-.15186-.04858-.30469-.06982-.45752-.01465-.106-.03516-.20947-.04566-.31689-.02636-.26514-.04028-.53125-.04-.79688V84.11816a8,8,0,0,1,16,0v44.68555l18.34278-18.34277A104,104,0,0,1,232,184Z"/></symbol>
  <symbol id="ph-dt-plus-circle" viewBox="0 0 256 256"><g opacity="0.2"><circle cx="128" cy="128" r="96"/></g><g><path d="M128,24A104,104,0,1,0,232,128,104.11791,104.11791,0,0,0,128,24Zm0,192a88,88,0,1,1,88-88A88.09957,88.09957,0,0,1,128,216Z"/><path d="M168,120H136V88a8,8,0,0,0-16,0v32H88a8,8,0,0,0,0,16h32v32a8,8,0,0,0,16,0V136h32a8,8,0,0,0,0-16Z"/></g></symbol>
  <symbol id="ph-dt-quotes" viewBox="0 0 256 256"><path d="M108,72v72H40a8,8,0,0,1-8-8V72a8,8,0,0,1,8-8h60A8,8,0,0,1,108,72Zm108-8H156a8,8,0,0,0-8,8v64a8,8,0,0,0,8,8h68V72A8,8,0,0,0,216,64Z" opacity="0.2"/><path d="M100,56H40A16.01833,16.01833,0,0,0,24,72v64a16.01833,16.01833,0,0,0,16,16h60v8a32.036,32.036,0,0,1-32,32,8,8,0,0,0,0,16,48.05436,48.05436,0,0,0,48-48V72A16.01833,16.01833,0,0,0,100,56Zm0,80H40V72h60ZM216,56H156a16.01833,16.01833,0,0,0-16,16v64a16.01833,16.01833,0,0,0,16,16h60v8a32.036,32.036,0,0,1-32,32,8,8,0,0,0,0,16,48.05436,48.05436,0,0,0,48-48V72A16.01833,16.01833,0,0,0,216,56Zm0,80H156V72h60Z"/></symbol>
  <symbol id="ph-dt-magnifying-glass" viewBox="0 0 256.00098 256.00098"><g opacity="0.2"><circle cx="115.99512" cy="116" r="84"/></g><path d="M229.64648,218.34424l-43.2229-43.2229a92.111,92.111,0,1,0-11.31445,11.31347l43.2229,43.2229a8.00018,8.00018,0,1,0,11.31445-11.31347ZM39.99512,116a76,76,0,1,1,76,76A76.08614,76.08614,0,0,1,39.99512,116Z"/></symbol>
  <symbol id="ph-dt-shield" viewBox="0 0 256 256"><g opacity="0.2"><path d="M40,114.66667V56a8,8,0,0,1,8-8H208a8,8,0,0,1,8,8v58.66667c0,84.01533-71.306,111.85016-85.5438,116.57058a7.54755,7.54755,0,0,1-4.9124,0C111.306,226.51683,40,198.682,40,114.66667Z"/></g><path d="M208,40.00012H48a16.018,16.018,0,0,0-16,16v58.66651c0,89.45458,75.82617,119.125,91.02637,124.16406a15.47923,15.47923,0,0,0,9.94726,0C148.17383,233.79163,224,204.12121,224,114.66663V56.00012A16.018,16.018,0,0,0,208,40.00012Zm0,74.66651c0,78.25878-66.35156,104.41113-80.00293,108.95605C114.48047,219.12854,48,193.00159,48,114.66663V56.00012H208Z"/></symbol>
  <symbol id="ph-dt-sign-in" viewBox="0 0 256 256"><path d="M141.65723,133.65625l-41.98828,42a8.00018,8.00018,0,0,1-11.31543-11.3125L116.68994,136H24a8,8,0,0,1,0-16h92.68994L88.35352,91.65625A8.00018,8.00018,0,0,1,99.669,80.34375l41.98828,42A7.99974,7.99974,0,0,1,141.65723,133.65625ZM192,32H136a8,8,0,0,0,0,16h56V208H136a8,8,0,0,0,0,16h56a16.01833,16.01833,0,0,0,16-16V48A16.01833,16.01833,0,0,0,192,32Z"/></symbol>
  <symbol id="ph-dt-sign-out" viewBox="0 0 256 256"><path d="M221.65723,133.65625l-41.98828,42a8.00018,8.00018,0,0,1-11.31543-11.3125L196.68994,136H104a8,8,0,0,1,0-16h92.68994L168.35352,91.65625A8.00018,8.00018,0,0,1,179.669,80.34375l41.98828,42A7.99974,7.99974,0,0,1,221.65723,133.65625ZM104,208H48V48h56a8,8,0,0,0,0-16H48A16.01833,16.01833,0,0,0,32,48V208a16.01833,16.01833,0,0,0,16,16h56a8,8,0,0,0,0-16Z"/></symbol>
  <symbol id="ph-dt-smiley" viewBox="0 0 256 256"><path d="M224,128a96,96,0,1,1-96-96A95.99975,95.99975,0,0,1,224,128Z" opacity="0.2"/><path d="M128,24A104,104,0,1,0,232,128,104.11791,104.11791,0,0,0,128,24Zm0,192a88,88,0,1,1,88-88A88.09957,88.09957,0,0,1,128,216ZM80,108a12,12,0,1,1,12,12A12,12,0,0,1,80,108Zm72,0a12,12,0,1,1,12,12A12,12,0,0,1,152,108Zm24.50488,48.00293a56.01609,56.01609,0,0,1-97.00976.00049,8.00016,8.00016,0,1,1,13.85058-8.01074,40.01628,40.01628,0,0,0,69.30957-.00049,7.99974,7.99974,0,1,1,13.84961,8.01074Z"/></symbol>
  <symbol id="ph-dt-tag" viewBox="0 0 256 256"><g opacity="0.2"><path d="M122.66459,25.8792,42.0101,42.0101,25.8792,122.66459a8,8,0,0,0,2.1878,7.22578L132.51977,234.34315a8,8,0,0,0,11.31371,0l90.50967-90.50967a8,8,0,0,0,0-11.31371L129.89037,28.067A8,8,0,0,0,122.66459,25.8792Z"/></g><path d="M240,126.8623,135.54785,22.41016a15.95894,15.95894,0,0,0-14.45215-4.376L40.44043,34.165A8.00261,8.00261,0,0,0,34.165,40.44043L18.03418,121.0957a15.97009,15.97009,0,0,0,4.376,14.45215L126.86133,239.999a16.00006,16.00006,0,0,0,22.6289.001L239.999,149.49121A16.00007,16.00007,0,0,0,240,126.8623ZM138.17676,228.68555,33.72363,124.23438l15.085-75.42579,75.42578-15.085-.001.001L228.68555,138.17578ZM96,84A12,12,0,1,1,84,72,12.01312,12.01312,0,0,1,96,84Z"/></symbol>
  <symbol id="ph-dt-push-pin-simple" viewBox="0 0 256 256"><path d="M200,176H56L80,40h96Z" opacity="0.2"/><path d="M216,168h-9.28857L185.53516,48H192a8,8,0,0,0,0-16H64a8,8,0,0,0,0,16h6.46484L49.28857,168H40a8,8,0,0,0,0,16H55.97607l.0337.00146L56.04248,184H120v56a8,8,0,0,0,16,0V184h63.95752l.03271.00146.0337-.00146H216a8,8,0,0,0,0-16ZM86.71143,48h82.57714l21.17627,120H65.53516Z"/></symbol>
  <symbol id="ph-dt-x-circle" viewBox="0 0 256 256"><g opacity="0.2"><circle cx="128" cy="128" r="96"/></g><g><path d="M128,24.00012a104,104,0,1,0,104,104A104.11791,104.11791,0,0,0,128,24.00012Zm0,192a88,88,0,1,1,88-88A88.09957,88.09957,0,0,1,128,216.00012Z"/><path d="M165.65723,90.34338a8.00122,8.00122,0,0,0-11.31446,0L128,116.68616,101.65723,90.34338a8.00018,8.00018,0,1,0-11.31446,11.31348L116.686,128.00012,90.34277,154.34338a8.00018,8.00018,0,0,0,11.31446,11.31348L128,139.31409l26.34277,26.34277a8.00018,8.00018,0,0,0,11.31446-11.31348L139.314,128.00012l26.34327-26.34326A8,8,0,0,0,165.65723,90.34338Z"/></g></symbol>
  <symbol id="ph-dt-toggle-left" viewBox="0 0 256 256"><path d="M112,128A32,32,0,1,1,80,96,32.00014,32.00014,0,0,1,112,128Z" opacity="0.2"/><path d="M176,56H80a72,72,0,0,0,0,144h96a72,72,0,0,0,0-144Zm0,128H80A56,56,0,0,1,80,72h96a56,56,0,0,1,0,112ZM80,88a40,40,0,1,0,40,40A40.04552,40.04552,0,0,0,80,88Zm0,64a24,24,0,1,1,24-24A24.0275,24.0275,0,0,1,80,152Z"/></symbol>
  <symbol id="ph-dt-toggle-right" viewBox="0 0 256 256"><path d="M208,128a32,32,0,1,1-32-32A32,32,0,0,1,208,128Z" opacity="0.2"/><path d="M176,56H80a72,72,0,0,0,0,144h96a72,72,0,0,0,0-144Zm0,128H80A56,56,0,0,1,80,72h96a56,56,0,0,1,0,112Zm0-96a40,40,0,1,0,40,40A40.04552,40.04552,0,0,0,176,88Zm0,64a24,24,0,1,1,24-24A24.0275,24.0275,0,0,1,176,152Z"/></symbol>
  <symbol id="ph-dt-arrow-counter-clockwise" viewBox="0 0 256 256"><path d="M195.88281,195.88281a96.11136,96.11136,0,0,1-135.76562,0,8.00052,8.00052,0,0,1,11.31445-11.31445,79.99992,79.99992,0,1,0,0-113.13721L51.147,91.71582H79.833a8,8,0,0,1,0,16h-48c-.02979,0-.0586-.00415-.08838-.00446-.23316-.00256-.46631-.01245-.69824-.03527-.12891-.01258-.25391-.03632-.38086-.05494-.13135-.01928-.26319-.03424-.39356-.06005-.14038-.02777-.27661-.0661-.4143-.10114-.115-.02923-.23072-.05426-.34449-.08862-.13427-.04059-.26367-.0907-.39477-.13806-.11524-.04151-.2312-.07929-.345-.12629-.12085-.05011-.23682-.10876-.35449-.16455-.11915-.05621-.23926-.10907-.356-.17144-.11133-.0597-.21729-.12757-.32544-.1922-.116-.06928-.2334-.13483-.34644-.21051-.11718-.07831-.22729-.16553-.33984-.24976-.09644-.07227-.19556-.1394-.28955-.21655-.18628-.1529-.36426-.31531-.53589-.48413-.01611-.01593-.03394-.02918-.05-.04529-.02051-.02051-.0376-.04321-.05762-.06391-.16357-.16711-.32177-.33941-.47045-.52032-.08277-.10059-.15479-.20648-.23194-.31006-.07861-.10571-.1604-.20862-.23389-.3183-.08081-.12072-.15112-.24591-.22485-.36993-.05932-.1-.12231-.19757-.17749-.30035-.06738-.12592-.12475-.25531-.18481-.384-.05078-.1084-.10523-.21466-.15137-.32568-.05151-.12463-.09326-.25189-.13843-.37848-.04272-.11987-.08911-.238-.12622-.36047-.03857-.12775-.06714-.25757-.09936-.38678-.03077-.124-.06568-.24622-.09082-.37244-.03-.15088-.04834-.30328-.06958-.45544-.01465-.10645-.03541-.21094-.0459-.31867a7.97366,7.97366,0,0,1-.04-.79706V51.71582a8,8,0,0,1,16,0v28.686L60.11719,60.11768A96.00062,96.00062,0,0,1,195.88281,195.88281Z"/></symbol>
  <symbol id="ph-dt-upload" viewBox="0 0 256 256"><g opacity="0.2"><rect x="24" y="128" width="208" height="80" rx="8"/></g><g><circle cx="188.00049" cy="168" r="12"/><path d="M224,120H176a8,8,0,0,0,0,16h48v64H32V136H80a8,8,0,0,0,0-16H32a16.01833,16.01833,0,0,0-16,16v64a16.01833,16.01833,0,0,0,16,16H224a16.01833,16.01833,0,0,0,16-16V136A16.01833,16.01833,0,0,0,224,120Z"/><path d="M85.65674,77.65723,120,43.31348V128a8,8,0,0,0,16,0V43.31348l34.34326,34.34375a8.00018,8.00018,0,0,0,11.31348-11.31446l-48-48c-.023-.02246-.04785-.0415-.0708-.064-.165-.16113-.33545-.31787-.51416-.46485-.09619-.07861-.19776-.14746-.29639-.22119-.11035-.08252-.21826-.168-.333-.24511-.11377-.07618-.23242-.14209-.34912-.21192-.10742-.06445-.2124-.13183-.32324-.19092-.11572-.062-.23535-.11425-.35352-.17041-.11865-.05615-.23584-.11523-.35742-.166-.11181-.0459-.22558-.083-.33887-.12354-.1333-.04834-.26513-.09961-.40185-.14062-.10889-.0332-.21973-.05664-.33008-.085-.14258-.03662-.28369-.07617-.42969-.105-.12109-.02393-.24365-.0376-.36523-.05567-.13623-.0205-.271-.04541-.40918-.05908-.20215-.01953-.40479-.02637-.60742-.03076C128.11768,16.00781,128.05957,16,128,16s-.11768.00781-.17676.00879c-.20263.00439-.40527.01123-.60742.03076-.13818.01367-.27295.03858-.40918.05908-.12158.01807-.24414.03174-.36523.05567-.146.02881-.28711.06836-.42969.105-.11035.02832-.22119.05176-.33008.085-.13672.041-.26855.09228-.40185.14062-.11329.04053-.22706.07764-.33887.12354-.12158.05078-.23877.10986-.35742.166-.11817.05616-.2378.1084-.35352.17041-.11084.05909-.21582.12647-.32324.19092-.1167.06983-.23535.13574-.34912.21192-.11475.07714-.22266.16259-.333.24511-.09863.07373-.2002.14258-.29639.22119-.17578.14454-.34277.29834-.50537.457-.02588.0249-.0542.04638-.07959.07177l-48,48A8.00018,8.00018,0,0,0,85.65674,77.65723Z"/></g></symbol>
  <symbol id="ph-dt-video-camera" viewBox="0 0 256 256"><g opacity="0.2"><path d="M24,60H152a32,32,0,0,1,32,32v96a8,8,0,0,1-8,8H48a32,32,0,0,1-32-32V68A8,8,0,0,1,24,60Z"/></g><path d="M244.01562,73.08105a8.001,8.001,0,0,0-7.98437-.02734L192,98.21436V92a40.04584,40.04584,0,0,0-40-40H24A16.01833,16.01833,0,0,0,8,68v96a40.04584,40.04584,0,0,0,40,40H176a16.01833,16.01833,0,0,0,16-16V157.78564l44.03125,25.16065A8.0003,8.0003,0,0,0,248,176V80A7.99807,7.99807,0,0,0,244.01562,73.08105ZM176,188H48a24.0275,24.0275,0,0,1-24-24V68H152a24.0275,24.0275,0,0,1,24,24l.00195,20.11865c.00049.02783-.00049.05567,0,.0835l.00342,31.55c-.00268.08349-.00024.16675,0,.25012L176.00977,188Zm56-25.78516L192,139.3573V116.6427l40-22.85754Z"/></symbol>
  <symbol id="ph-dt-wrench" viewBox="0 0 256 256"><g opacity="0.2"><path d="M184.99131,37.06756,143.02944,79.02944l5.65685,28.28427,28.28427,5.65685,41.96188-41.96187.0041-.00174a64.02489,64.02489,0,0,1-89.88113,81.03367l.00123-.00214L72.97056,216.97056a24,24,0,0,1-33.94112-33.94112L103.9608,126.944l-.00137.0007a64.02489,64.02489,0,0,1,81.03363-89.88122Z"/></g><path d="M226.30273,67.88574a8.00454,8.00454,0,0,0-13.02685-2.53418l-38.93457,38.93457-18.856-3.77148L151.71387,81.6582,190.648,42.72461a8.0014,8.0014,0,0,0-2.53369-13.02734,72.02489,72.02489,0,0,0-94.06153,95.23437l-60.25293,52.043c-.147.12793-.29.26074-.42773.39844a32.00021,32.00021,0,0,0,45.25537,45.25488q.20655-.20655.39746-.42773l52.04248-60.252a72.0259,72.0259,0,0,0,95.23535-94.0625Zm-26.70459,67.71192a56.25183,56.25183,0,0,1-66.481,9.54785,8.00213,8.00213,0,0,0-10.11475,1.66308l-55.876,64.68946a16.00011,16.00011,0,0,1-22.625-22.624l64.6875-55.876a7.999,7.999,0,0,0,1.772-9.92383A56.04429,56.04429,0,0,1,169.896,40.84863L137.37256,73.37207a8.00152,8.00152,0,0,0-2.188,7.22656l5.65723,28.28418a8.00125,8.00125,0,0,0,6.27588,6.27539l28.28418,5.65723a8.00015,8.00015,0,0,0,7.22558-2.1875l32.52393-32.52441A55.76421,55.76421,0,0,1,199.59814,135.59766Z"/></symbol>
</svg>
